# xmcd
#
# Track frame offsets:
#	150
#	30106
#	69669
#	110662
#	145680
#	185017
#	215189
#	243526
#	277118
#	307271
#
# Disc length: 4260 seconds
#
# Revision: 2
# Processed by: cddbd v1.5.2PL0 Copyright (c) Steve Scherf et al.
# Submitted via: VUPlayer 2.49
#
DISCID=9f10a20a
DTITLE=HUVA Network - Ephemeris
DYEAR=2009
DGENRE=Ambient
TTITLE0=Dissolving Time
TTITLE1=Blank
TTITLE2=Orientations Part 1 (Above Towns Edit)
TTITLE3=Orientations Part 2 (Éphéméride 15.43°)
TTITLE4=Orientations Part 3 (Uncertainty Principle)
TTITLE5=Cobalt
TTITLE6=Fade Away
TTITLE7=Diagrams
TTITLE8=Something Heavens
TTITLE9=Saturday Barbecue With the New Neighbours
EXTD=INRE033
EXTT0=
EXTT1=
EXTT2=
EXTT3=
EXTT4=
EXTT5=
EXTT6=
EXTT7=
EXTT8=
EXTT9=
PLAYORDER=
